<svg id="Layer_1" data-name="Layer 1" xmlns="http://www.w3.org/2000/svg" width="109.26" height="115.05" viewBox="0 0 109.26 115.05">
  <title>Vector Smart Object_3</title>
  <path d="M571,305.4a3.77,3.77,0,1,0,3.78,3.79A3.78,3.78,0,0,0,571,305.4Z" transform="translate(-516.33 -248.75)" fill="none"/>
  <path d="M578,255v3.67a51,51,0,1,1-14,0V255a54.67,54.67,0,1,0,14,0Z" transform="translate(-516.33 -248.75)" fill="#6f50e4"/>
  <path d="M571.71,332.64a23.27,23.27,0,1,1,21.64-30.27h3.77a26.9,26.9,0,1,0,0,14h-3.78A23.21,23.21,0,0,1,571.71,332.64Z" transform="translate(-516.33 -248.75)" fill="#6f50e4"/>
  <g>
    <path d="M540.32,328.35l-4.64,3.15A41.77,41.77,0,0,1,571,267.42c.58,0,1.17,0,1.75,0v-17h-3.5v13.33a45.39,45.39,0,0,0-34.54,72.61l7.66-5.21c-.38-.48-.74-1-1.09-1.48S540.62,328.82,540.32,328.35Z" transform="translate(-516.33 -248.75)" fill="#ff8b00"/>
    <path d="M589.47,335.89a32.55,32.55,0,0,1-44.13-6.71l-3,2.05a36.16,36.16,0,0,0,63.09-11.13L602,319A32.16,32.16,0,0,1,589.47,335.89Z" transform="translate(-516.33 -248.75)" fill="#ff8b00"/>
    <path d="M544.23,327.67c-.31-.45-.59-.92-.88-1.38l-3,2.06c.3.47.6.94.92,1.4s.71,1,1.09,1.48l3-2.05C545,328.69,544.59,328.19,544.23,327.67Z" transform="translate(-516.33 -248.75)" fill="#ff8b00"/>
  </g>
  <path d="M603,315a32.56,32.56,0,0,1-37.8,26.18,32,32,0,0,1-17.56-9.44l-3.06,2.09a35.76,35.76,0,0,0,20,10.93,36.2,36.2,0,0,0,42-29.11,36.69,36.69,0,0,0,.53-4.51h-3.67A34,34,0,0,1,603,315Z" transform="translate(-516.33 -248.75)" fill="#ff8b00"/>
  <path d="M581.14,319.15a14,14,0,1,1-11.93-23.78v-3.65a17.67,17.67,0,1,0,19.53,19.4H585.1A14,14,0,0,1,581.14,319.15Z" transform="translate(-516.33 -248.75)" fill="#ff8b00"/>
  <path d="M588.78,307.62h-3.64a14.13,14.13,0,0,1,0,3.5h3.64A17.79,17.79,0,0,0,588.78,307.62Z" transform="translate(-516.33 -248.75)" fill="#ff8b00"/>
  <path d="M607.08,307.62h0c0,1,0,2,0,3C607.12,309.59,607.12,308.6,607.08,307.62Z" transform="translate(-516.33 -248.75)" fill="#ff8b00"/>
  <path d="M603.45,310c0,.37,0,.74-.06,1.11h3.67a2.09,2.09,0,0,0,0-.25l-3.62-.16C603.46,310.48,603.45,310.24,603.45,310Z" transform="translate(-516.33 -248.75)" fill="#ff8b00"/>
  <path d="M603.43,307.62h0a.38.38,0,0,1,0,.1Z" transform="translate(-516.33 -248.75)" fill="#ff8b00"/>
  <path d="M607.08,310.87v-.29a2.81,2.81,0,0,1,0,.29Z" transform="translate(-516.33 -248.75)" fill="#ff8b00"/>
  <path d="M607.07,307.62h-3.64v.1c0,.43,0,.85,0,1.28s0,.67,0,1,0,.47,0,.7l3.62.16a2.81,2.81,0,0,0,0-.29C607.12,309.59,607.11,308.6,607.07,307.62Z" transform="translate(-516.33 -248.75)" fill="#ff8b00"/>
  <path d="M572.71,295.31v-3.65a17.79,17.79,0,0,0-3.5.06v3.65A14.13,14.13,0,0,1,572.71,295.31Z" transform="translate(-516.33 -248.75)" fill="#ff8b00"/>
  <path d="M571,301.76a7.41,7.41,0,1,0,7.42,7.43A7.43,7.43,0,0,0,571,301.76Zm0,11.18a3.77,3.77,0,1,1,3.78-3.75A3.77,3.77,0,0,1,571,312.94Z" transform="translate(-516.33 -248.75)" fill="#6f50e4"/>
  <circle cx="54.63" cy="60.31" r="1.75" fill="#ff8b00"/>
  <circle cx="54.63" cy="1.75" r="1.75" fill="#ff8b00"/>
  <path d="M569.21,295.37v13.69h3.5V295.31A14.13,14.13,0,0,0,569.21,295.37Z" transform="translate(-516.33 -248.75)" fill="#ff8b00"/>
  <g>
    <path d="M603.43,307.72a.38.38,0,0,0,0-.1H588.66a17.79,17.79,0,0,1,0,3.5h14.76c0-.37.05-.74.06-1.11s0-.68,0-1S603.45,308.15,603.43,307.72Z" transform="translate(-516.33 -248.75)" fill="#ff8b00"/>
    <path d="M581,319.16a14,14,0,0,1-23.79-7.91h-3.65a17.64,17.64,0,0,0,35.07-.13H585A13.9,13.9,0,0,1,581,319.16Z" transform="translate(-516.33 -248.75)" fill="#ff8b00"/>
    <path d="M588.66,307.62H585a14.63,14.63,0,0,1,0,3.5h3.67A17.79,17.79,0,0,0,588.66,307.62Z" transform="translate(-516.33 -248.75)" fill="#ff8b00"/>
  </g>
  <path d="M583.57,296.75a17.47,17.47,0,0,0-5.69-3.78v4a13.72,13.72,0,0,1,5.41,5.38h4A17.45,17.45,0,0,0,583.57,296.75Z" transform="translate(-516.33 -248.75)" fill="#6f50e4"/>
  <path d="M616.26,306.3v-.06c0-.7-.1-1.4-.18-2.09,0,0,0-.09,0-.14-.08-.69-.17-1.37-.28-2.05l0-.13q-.18-1.05-.39-2.1v0a45.31,45.31,0,0,0-37.4-35.4V268a41.43,41.43,0,0,1,6.32,1.58v0A41.77,41.77,0,0,1,604,334.66l-.22.27c-.32.42-.65.82-1,1.22l-.49.56c-.27.31-.55.62-.83.92s-.47.5-.71.74l-.76.76-.58.55c-.27.26-.55.51-.84.77L598,341c-.28.23-.56.47-.85.69l-.69.56-.9.66-.7.51c-.5.34-1,.68-1.51,1a43.1,43.1,0,0,1-6.21,3.24l-.38.15-1.16.46-.64.23-.91.31-.84.26-.71.22-1,.27-.56.14-1.12.26-.44.09-1.23.24-.33.05-1.33.2-.19,0a41.5,41.5,0,0,1-8,.26l-.7,3.6a44.87,44.87,0,0,0,7.69-.1h0l.3,0c.47-.05.94-.1,1.41-.17.21,0,.41-.06.62-.09.41-.06.82-.12,1.23-.2l.66-.12,1.2-.25.62-.14c.43-.1.86-.2,1.28-.32l.51-.13,1.44-.43.32-.1c.57-.18,1.14-.38,1.7-.58l0,0a45.48,45.48,0,0,0,8.47-4.14c.92-.58,1.8-1.19,2.66-1.83l.87-.64c.27-.2.53-.42.79-.63s.6-.48.89-.73.49-.41.72-.62l.92-.83.63-.6.28-.27c.19-.18.36-.37.54-.55s.52-.53.77-.8l.91-1,.52-.6c.37-.44.73-.89,1.09-1.34l.22-.29A45.31,45.31,0,0,0,616.26,306.3Z" transform="translate(-516.33 -248.75)" fill="#6f50e4"/>
  <path d="M604,294.6a36.13,36.13,0,0,0-64.62-3l3.42,1.36a32.48,32.48,0,0,1,57.87,3.13,32.76,32.76,0,0,1,2,6.3h3.74A36.25,36.25,0,0,0,604,294.6Z" transform="translate(-516.33 -248.75)" fill="#6f50e4"/>
  <path d="M571.73,354.54l1.11,0,1.36-.08.79-.06c.57-.05,1.14-.12,1.71-.19l.36-.05a45.35,45.35,0,0,0,28.14-15.21l0,0c.46-.53.91-1.07,1.34-1.63l.09-.1c.42-.55.84-1.1,1.24-1.66a.61.61,0,0,0,.07-.1c.42-.59.82-1.18,1.2-1.78h0a45.3,45.3,0,0,0-3.11-53.19l-2.8,2.3a41.76,41.76,0,0,1,4.94,7.6h0a41.76,41.76,0,0,1-31.61,60.21l-.35,0c-.52.07-1,.12-1.56.17l-.74.06-1.24.07c-.34,0-.68,0-1,0H570.6l-.8,0-1.14-.05-.86,0-1.09-.1-.88-.1c-.37,0-.74-.1-1.11-.15l-.86-.13c-.59-.11-1.18-.22-1.78-.35a42.39,42.39,0,0,1-6.69-2.06l-.38-.16c-.38-.15-.77-.32-1.15-.49l-.61-.28-.87-.42-.78-.4-.66-.35-.9-.5-.5-.3c-.33-.19-.65-.39-1-.6l-.38-.24-1-.7-.27-.19-1.09-.79-.15-.12a41.75,41.75,0,0,1-4.58-4l-3,2.1a45.39,45.39,0,0,0,4.27,3.94h0l.24.19c.37.3.75.59,1.13.87l.49.37,1,.72.56.38,1,.67.54.34c.38.23.75.45,1.14.66l.45.26c.44.25.88.48,1.33.71l.3.16,1.61.77,0,0a45.49,45.49,0,0,0,9,3c1,.23,2.11.41,3.17.57.36.05.71.11,1.07.15l1,.11,1.14.11,1,.06,1.24,0,.86,0h.4Z" transform="translate(-516.33 -248.75)" fill="#6f50e4"/>
  <path d="M539,303.35a32.51,32.51,0,0,1,56-16.06l2.69-2.45a36.14,36.14,0,0,0-59.81,38.9l3.08-2.13A32.08,32.08,0,0,1,539,303.35Z" transform="translate(-516.33 -248.75)" fill="#6f50e4"/>
</svg>
