<svg id="Layer_1" data-name="Layer 1" xmlns="http://www.w3.org/2000/svg" width="74.02" height="85.47" viewBox="0 0 74.02 85.47">
  <title>Vector Smart Object</title>
  <polygon points="0 21.37 0 64.1 37.01 85.47 74.02 64.1 74.02 21.37 37.01 0 0 21.37" fill="#7050e5"/>
  <g>
    <path d="M-176,8.35a20.75,20.75,0,0,0-10.36,3.25c-4.65,3.19-13,12.42-13,12.42s-5.75,6-12.77,8.13a35.71,35.71,0,0,1-10.74,1.27V46s8.47-.29,11.43-.87a26.31,26.31,0,0,0,14.17-6.73c5.34-5.11,11.08-10.8,13-12.95a16.75,16.75,0,0,1,5.8-4.29,17.71,17.71,0,0,1,2.47-.41Z" transform="translate(236.44 15.58)" fill="#fff"/>
    <rect x="47.61" y="48.54" width="13" height="13" fill="#f69220"/>
  </g>
</svg>
